<?xml version="1.0" encoding="UTF-8" standalone="no"?><!-- Generator: Gravit.io --><svg xmlns="http://www.w3.org/2000/svg" xmlns:xlink="http://www.w3.org/1999/xlink" style="isolation:isolate" viewBox="0 0 537 104" width="537pt" height="104pt"><defs><clipPath id="_clipPath_urd2sFJu4tX0AxLxR9TTzArLBc4W2z65"><rect width="537" height="104"/></clipPath></defs><g clip-path="url(#_clipPath_urd2sFJu4tX0AxLxR9TTzArLBc4W2z65)"><g><path d=" M 170.091 0 L 316.675 0 L 316.675 99.944 L 170.091 99.944 L 170.091 0 Z " fill="rgb(213,0,0)"/><path d=" M 235.691 65.68 L 239.322 54.499 L 229.824 47.59 L 241.574 47.59 L 245.206 36.413 L 248.85 47.59 L 260.587 47.59 L 251.086 54.499 L 254.717 65.68 L 245.219 58.77 L 235.691 65.68 Z  M 247.234 57.298 L 250.176 59.447 L 249.057 55.972 L 247.234 57.298 Z  M 241.354 55.972 L 240.235 59.447 L 243.177 57.298 L 241.354 55.972 Z  M 242.121 53.59 L 245.206 55.829 L 248.277 53.59 L 247.105 49.985 L 243.307 49.985 L 242.121 53.59 Z  M 237.163 49.985 L 240.105 52.117 L 240.795 49.985 L 237.163 49.985 Z  M 249.616 49.985 L 250.306 52.117 L 253.261 49.985 L 249.616 49.985 Z  M 244.073 47.59 L 246.338 47.59 L 245.206 44.115 L 244.073 47.59 Z " fill="rgb(27,94,32)"/></g><path d=" M 418.502 33.976 L 418.502 40.77 L 434.412 40.77 L 434.412 44.726 L 426.07 66.656 L 419.319 66.656 L 427.403 46.188 L 412.052 46.188 L 412.052 33.976 L 418.502 33.976 L 418.502 33.976 Z  M 396.532 67.172 L 396.532 67.172 L 396.532 67.172 Q 383.417 67.172 383.417 52.939 L 383.417 52.939 L 383.417 40.77 L 389.867 40.77 L 389.867 52.939 L 389.867 52.939 Q 389.867 57.54 391.544 59.733 L 391.544 59.733 L 391.544 59.733 Q 393.221 61.926 396.575 61.926 L 396.575 61.926 L 396.575 61.926 Q 400.273 61.926 401.606 59.668 L 401.606 59.668 L 401.606 59.668 Q 402.939 57.411 402.939 52.939 L 402.939 52.939 L 402.939 52.939 Q 402.939 48.854 401.928 47.349 L 401.928 47.349 L 401.928 47.349 Q 400.918 45.844 399.112 45.844 L 399.112 45.844 L 399.112 45.844 Q 397.693 45.844 396.424 46.123 L 396.424 46.123 L 396.424 46.123 Q 395.156 46.403 393.909 46.919 L 393.909 46.919 L 393.909 41.501 L 393.909 41.501 Q 395.027 41.157 396.704 40.748 L 396.704 40.748 L 396.704 40.748 Q 398.381 40.34 400.359 40.34 L 400.359 40.34 L 400.359 40.34 Q 403.369 40.34 405.196 41.458 L 405.196 41.458 L 405.196 41.458 Q 407.024 42.576 407.97 44.382 L 407.97 44.382 L 407.97 44.382 Q 408.916 46.188 409.26 48.338 L 409.26 48.338 L 409.26 48.338 Q 409.604 50.488 409.604 52.552 L 409.604 52.552 L 409.604 52.552 Q 409.604 58.013 408.056 61.216 L 408.056 61.216 L 408.056 61.216 Q 406.508 64.42 403.584 65.796 L 403.584 65.796 L 403.584 65.796 Q 400.66 67.172 396.532 67.172 Z  M 374.642 57.497 L 371.417 57.497 L 371.417 40.77 L 377.867 40.77 L 377.867 52.38 L 374.642 57.497 L 374.642 57.497 Z  M 362.642 57.497 L 359.417 57.497 L 359.417 40.77 L 365.867 40.77 L 365.867 52.38 L 362.642 57.497 L 362.642 57.497 Z  M 339.502 33.976 L 339.502 40.77 L 355.412 40.77 L 355.412 44.726 L 347.07 66.656 L 340.319 66.656 L 348.403 46.188 L 333.052 46.188 L 333.052 33.976 L 339.502 33.976 L 339.502 33.976 Z  M 526.183 66.656 L 502.662 66.656 L 502.662 61.238 L 516.379 61.238 L 516.379 50.574 L 516.379 50.574 Q 516.379 48.166 515.519 47.177 L 515.519 47.177 L 515.519 47.177 Q 514.659 46.188 512.638 46.188 L 512.638 46.188 L 502.662 46.188 L 502.662 40.77 L 512.896 40.77 L 512.896 40.77 Q 522.829 40.77 522.829 49.843 L 522.829 49.843 L 522.829 61.238 L 526.183 61.238 L 526.183 66.656 L 526.183 66.656 Z  M 498.477 66.656 L 492.027 66.656 L 492.027 40.77 L 498.477 40.77 L 498.477 66.656 L 498.477 66.656 Z  M 468.789 66.656 L 462.339 66.656 L 462.339 59.432 L 462.339 59.432 Q 462.339 55.906 463.543 53.025 L 463.543 53.025 L 463.543 53.025 Q 464.747 50.144 467.155 48.768 L 467.155 48.768 L 461.307 40.77 L 468.703 40.77 L 477.776 53.971 L 477.776 53.971 Q 478.593 53.068 478.98 51.477 L 478.98 51.477 L 478.98 51.477 Q 479.367 49.886 479.367 47.736 L 479.367 47.736 L 479.367 40.77 L 485.817 40.77 L 485.817 47.478 L 485.817 47.478 Q 485.817 51.09 484.57 53.992 L 484.57 53.992 L 484.57 53.992 Q 483.323 56.895 480.829 58.228 L 480.829 58.228 L 487.193 66.656 L 479.797 66.656 L 470.294 53.154 L 470.294 53.154 Q 468.789 55.089 468.789 59.174 L 468.789 59.174 L 468.789 66.656 L 468.789 66.656 Z  M 456.477 66.656 L 450.027 66.656 L 450.027 40.77 L 456.477 40.77 L 456.477 66.656 L 456.477 66.656 Z " fill="rgb(255,255,255)"/><path d=" M 158.507 66.656 L 134.986 66.656 L 134.986 61.238 L 148.703 61.238 L 148.703 50.574 L 148.703 50.574 Q 148.703 48.166 147.843 47.177 L 147.843 47.177 L 147.843 47.177 Q 146.983 46.188 144.962 46.188 L 144.962 46.188 L 134.986 46.188 L 134.986 40.77 L 145.22 40.77 L 145.22 40.77 Q 155.153 40.77 155.153 49.843 L 155.153 49.843 L 155.153 61.238 L 158.507 61.238 L 158.507 66.656 L 158.507 66.656 Z  M 121.455 40.34 L 121.455 40.34 L 121.455 40.34 Q 124.293 40.34 126.357 41.587 L 126.357 41.587 L 126.357 41.587 Q 128.421 42.834 129.561 45.113 L 129.561 45.113 L 129.561 45.113 Q 130.7 47.392 130.7 50.445 L 130.7 50.445 L 130.7 66.656 L 116.94 66.656 L 116.94 61.238 L 124.25 61.238 L 124.25 51.047 L 124.25 51.047 Q 124.25 46.059 119.907 46.059 L 119.907 46.059 L 119.907 46.059 Q 117.284 46.059 115.822 47.929 L 115.822 47.929 L 115.822 47.929 Q 114.36 49.8 113.887 53.713 L 113.887 53.713 L 112.296 66.656 L 105.846 66.656 L 107.867 50.101 L 105.932 40.77 L 112.382 40.77 L 113.156 44.984 L 113.328 44.984 L 113.328 44.984 Q 113.973 44.081 114.962 42.984 L 114.962 42.984 L 114.962 42.984 Q 115.951 41.888 117.499 41.114 L 117.499 41.114 L 117.499 41.114 Q 119.047 40.34 121.455 40.34 Z  M 101.142 66.656 L 94.692 66.656 L 94.692 50.574 L 94.692 50.574 Q 94.692 48.166 93.811 47.177 L 93.811 47.177 L 93.811 47.177 Q 92.929 46.188 90.951 46.188 L 90.951 46.188 L 79.341 46.188 L 79.341 40.77 L 91.209 40.77 L 91.209 40.77 Q 101.142 40.77 101.142 49.843 L 101.142 49.843 L 101.142 66.656 L 101.142 66.656 Z  M 75.801 66.656 L 69.351 66.656 L 69.351 40.77 L 75.801 40.77 L 75.801 66.656 L 75.801 66.656 Z  M 56.519 66.656 L 49.768 66.656 L 57.852 46.188 L 40.136 46.188 L 40.136 40.77 L 64.861 40.77 L 64.861 44.769 L 56.519 66.656 L 56.519 66.656 Z  M 46.586 76.976 L 40.136 76.976 L 40.136 50.66 L 46.586 50.66 L 46.586 76.976 L 46.586 76.976 Z  M 33.801 66.656 L 27.351 66.656 L 27.351 40.77 L 33.801 40.77 L 33.801 66.656 L 33.801 66.656 Z " fill="rgb(255,255,255)"/></g></svg>